# xmcd
#
# Track frame offsets: 
#        150
#        15106
#        30397
#        45494
#        60898
#        76367
#        90569
#        103695
#        125092
#        141066
#        155449
#        171438
#
# Disc length: 2534 seconds
#
# Revision: 0
# Processed by: cddbd v1.5.2PL0 Copyright (c) Steve Scherf et al.
# Submitted via: ExactAudioCopyFreeDBPlugin 1.0
#
DISCID=8709e40c
DTITLE=Various Artist - Aura Christmas
DYEAR=2007
DGENRE=Christian Rock
TTITLE0=Sarah Brightman - Winterlight
TTITLE1=Celtic Woman - White Christmas
TTITLE2=Libera - Silent Night
TTITLE3=Moya Brennan - Joy to the World
TTITLE4=Die 12 Cellisten Der Berliner Philharmoniker - Jesus Bleibet M
TTITLE4=eine Freude ～主よ、人の望みの喜びよ
TTITLE5=Sasha and Shawna - Panis Angelicus ～天使の糧
TTITLE6=Giorgia Fumanti - Ave Maria
TTITLE7=Bill Douglas featuring The Ars Nova Singers - Deep Peace (chor
TTITLE7=al ver.)
TTITLE8=Natasha Marsh - O Holy Night
TTITLE9=千住明 - White Noel ～クリスマスの夜に (sketchpiano ver.)
TTITLE10=Choir of King's College, Cambridge - Pie Jesu
TTITLE11=Gregorian - Imagine
EXTD=
EXTT0=
EXTT1=
EXTT2=
EXTT3=
EXTT4=
EXTT5=
EXTT6=
EXTT7=
EXTT8=
EXTT9=
EXTT10=
EXTT11=
PLAYORDER=
